# xmcd
#
# Track frame offsets: 
#        150
#        18100
#        30977
#        58274
#        75211
#        93983
#        98605
#        109370
#        122901
#        135011
#        150404
#        160848
#        178546
#        191583
#        208866
#        228455
#
# Disc length: 3139 seconds
#
# Revision: 0
# Processed by: cddbd v1.4PL0 Copyright (c) Steve Scherf et al.
# Submitted via: ExactAudioCopy v0.95a4
#
DISCID=ba0c4110
DTITLE=Champagne Charlie - Laatste Afvaart
DYEAR=2002
DGENRE=Blues
TTITLE0=Intro and Overvaren
TTITLE1=De Mannen Van De Boot
TTITLE2=Nog even and Land Van Mijn Vader
TTITLE3=Vlissingen Skyline (Bijna Thuis)
TTITLE4=De zichtberichten and Mist
TTITLE5=Devil In The Woodpile
TTITLE6=Ossenisse Blues
TTITLE7=Heimwee
TTITLE8=Uitverkoop
TTITLE9=Eerste gedachten and De Boot Van Tien Voor Zes
TTITLE10=Stressen Naar De Boot
TTITLE11=Lien
TTITLE12=PSD Blues
TTITLE13=Stamkroeg
TTITLE14=Veerplein and Laatste Afvaart
TTITLE15=Amazing Grace
EXTD=
EXTT0=
EXTT1=
EXTT2=
EXTT3=
EXTT4=
EXTT5=
EXTT6=
EXTT7=
EXTT8=
EXTT9=
EXTT10=
EXTT11=
EXTT12=
EXTT13=
EXTT14=
EXTT15=
PLAYORDER=
